:SAMPLES-PER-SECOND 30
:FRAME-RANGE 1-2643
:FULLY-SPECIFIED
:DEGREES
2396
root  42.792 37.8832 67.9014 -13.3352 61.9689 -21.2557
RightUpLeg  -21.9806 16.1932 -7.37119
RightLeg  24.1893 -4.32215 -2.33873
RightFoot  -10.9796 -0.0928753 5.78635
RightToes  5.38607e-012 1.2921e-014 -6.02303e-014
Spine  -2.55393 -6.39484 1.87743
Spine1  7.03994 -8.45775 6.42934
HEad  3.34309 60.429 -14.0701
LeftShoulder1  1.45013 -3.85738 -13.5178
LeftArm  24.5498 19.3508 -51.364
LeftForeArm  36.0194 -51.0347 -11.0544
LeftHand  -0.0813351 3.9813 5.29455
RightShoulder  0.403114 -1.95587 23.17
RightArm  20.7446 -15.25 27.4483
RightForeArm  40.9645 45.8144 8.64414
RightHand  0.0969969 -6.88935 -9.5273
LeftUpLeg  -4.60548 -11.3661 -9.685
LeftLeg  26.5594 4.39347 2.73073
LeftFoot  -11.0618 0.0317653 14.2924
LeftToes  -4.79707e-012 -5.93756e-011 -7.55542e-012
2397
root  44.1436 37.7436 68.5552 -18.2771 64.592 -26.7886
RightUpLeg  -22.6844 15.6353 -5.67532
RightLeg  17.6535 2.72043 0.70638
RightFoot  -12.1415 0.00942737 13.1535
RightToes  5.38607e-012 1.2921e-014 -6.02303e-014
Spine  -2.87416 -6.61737 2.51368
Spine1  7.84326 -9.01371 7.54805
HEad  1.64364 58.3945 -14.8317
LeftShoulder1  1.4581 -3.92911 -13.4181
LeftArm  24.0788 22.1804 -51.5181
LeftForeArm  39.1591 -58.2642 -14.678
LeftHand  -0.0813618 3.4855 3.99903
RightShoulder  0.41004 -1.95684 23.7487
RightArm  20.1164 -12.9101 28.7594
RightForeArm  41.5731 48.611 9.63459
RightHand  0.111048 -7.05854 -9.57739
LeftUpLeg  -4.06215 -11.991 -7.94457
LeftLeg  30.3241 1.95967 1.59197
LeftFoot  -10.9899 0.0277656 12.5241
LeftToes  -4.79707e-012 -5.93756e-011 -7.55542e-012
2398
root  45.4419 37.2828 69.1871 -22.7689 65.8223 -30.8304
RightUpLeg  -23.8087 12.8204 -2.97726
RightLeg  18.4173 9.37711 3.26548
RightFoot  -14.5072 0.380926 17.2494
RightToes  5.38607e-012 1.2921e-014 -6.02303e-014
Spine  -1.5515 -6.12785 3.48756
Spine1  7.61846 -8.42291 7.43931
HEad  -0.36388 56.7882 -16.3728
LeftShoulder1  1.39202 -3.4459 -13.9276
LeftArm  22.5529 25.1683 -51.7487
LeftForeArm  41.261 -62.8625 -17.9897
LeftHand  -0.077748 2.79701 2.8929
RightShoulder  0.538394 -1.5641 24.4546
RightArm  19.8783 -9.61725 31.151
RightForeArm  41.7497 49.0601 9.79892
RightHand  0.107356 -6.92701 -10.0369
LeftUpLeg  -5.1758 -10.5763 -6.50343
LeftLeg  38.4412 -0.852926 -0.343402
LeftFoot  -10.0287 -0.0531562 9.89442
LeftToes  -4.79707e-012 -5.93756e-011 -7.55542e-012
2399
root  46.7026 36.6787 69.7867 -27.5105 66.5183 -34.6926
RightUpLeg  -25.5965 14.1558 -0.656201
RightLeg  24.686 6.99241 3.28146
RightFoot  -13.1731 0.185298 17.1031
RightToes  5.38607e-012 1.2921e-014 -6.02303e-014
Spine  0.220677 -5.2426 5.52424
Spine1  7.39345 -7.1874 6.73162
HEad  -1.09945 55.4682 -16.979
LeftShoulder1  1.32452 -2.85344 -14.9001
LeftArm  20.1522 27.8572 -51.7988
LeftForeArm  42.6154 -64.9147 -19.8432
LeftHand  -0.0532834 2.39382 1.60189
RightShoulder  0.830221 -0.647498 24.9737
RightArm  20.4058 -6.02479 33.7605
RightForeArm  40.2973 47.9252 9.4595
RightHand  0.103918 -6.82491 -10.4053
LeftUpLeg  -8.22914 -7.38917 -4.14994
LeftLeg  49.618 -4.05225 -4.64899
LeftFoot  -5.53263 -0.229142 5.17085
LeftToes  -4.79707e-012 -5.93756e-011 -7.55542e-012
2400
root  47.9651 35.6487 70.4696 -33.1449 68.9092 -38.354
RightUpLeg  -26.3966 15.6327 0.129392
RightLeg  36.0093 3.30572 2.31996
RightFoot  -17.5106 0.732805 15.7242
RightToes  5.38607e-012 1.2921e-014 -6.02303e-014
Spine  2.45224 -4.6183 6.20218
Spine1  6.75513 -6.02664 5.66316
HEad  -0.901933 54.2882 -17.1106
LeftShoulder1  1.2531 -2.2998 -15.8278
LeftArm  18.1701 29.1483 -51.7673
LeftForeArm  42.1133 -64.5437 -19.5154
LeftHand  -0.0528938 2.42838 1.59809
RightShoulder  1.00191 -0.0735374 24.7882
RightArm  20.0296 -3.45061 37.8471
RightForeArm  39.7381 46.102 8.82716
RightHand  0.121471 -6.9389 -10.9328
LeftUpLeg  -12.313 -5.06618 -2.07246
LeftLeg  63.3925 -5.50943 -11.2104
LeftFoot  0.298617 0.46022 -4.53275
LeftToes  -4.79707e-012 -5.93756e-011 -7.55542e-012
2401
root  49.2814 34.5769 71.0676 -45.9148 71.1926 -48.1677
RightUpLeg  -24.1779 12.1285 2.90141
RightLeg  45.5801 2.91157 2.86402
RightFoot  -24.1323 1.31938 13.1861
RightToes  5.38607e-012 1.2921e-014 -6.02303e-014
Spine  4.98977 -4.0113 8.75848
Spine1  6.79464 -4.75595 4.07328
HEad  -0.219747 53.1563 -17.229
LeftShoulder1  1.22894 -1.91586 -17.113
LeftArm  16.4939 27.9891 -52.2151
LeftForeArm  38.1923 -60.8171 -16.6071
LeftHand  -0.0931167 2.63283 3.41833
RightShoulder  1.07377 0.19458 24.4709
RightArm  19.4102 -0.628474 41.2114
RightForeArm  39.4039 43.8472 8.08074
RightHand  0.140378 -6.96703 -12.0283
LeftUpLeg  -15.7924 -4.25652 1.28033
LeftLeg  75.7871 -3.37692 -14.0253
LeftFoot  4.43668 1.24757 -9.18458
LeftToes  -4.79707e-012 -5.93756e-011 -7.55542e-012
2402
root  50.6788 33.98 71.4998 -63.1573 74.3251 -64.3909
RightUpLeg  -21.0551 6.49879 3.80577
RightLeg  49.7186 2.83502 3.23026
RightFoot  -29.478 1.71034 11.9389
RightToes  5.38607e-012 1.2921e-014 -6.02303e-014
Spine  4.99373 -3.40414 10.1565
Spine1  7.20563 -3.94547 3.67576
HEad  2.46212 52.093 -15.5105
LeftShoulder1  1.14574 -1.43365 -17.8041
LeftArm  15.8519 25.0434 -53.8569
LeftForeArm  30.8169 -53.2632 -12.5413
LeftHand  -0.144374 2.54571 5.47975
RightShoulder  1.11088 0.304216 24.5812
RightArm  19.5976 2.09226 43.2733
RightForeArm  38.9073 41.0748 7.24554
RightHand  0.205434 -7.32843 -13.6074
LeftUpLeg  -21.5651 -5.04664 3.25975
LeftLeg  84.7568 -0.7837 -8.96313
LeftFoot  -0.968025 0.663798 -7.24372
LeftToes  -4.79707e-012 -5.93756e-011 -7.55542e-012
2403
root  52.1929 33.7839 71.8131 -80.0386 76.4953 -80.7743
RightUpLeg  -17.1047 1.65999 3.23703
RightLeg  50.6853 3.22758 3.85909
RightFoot  -33.1246 1.93405 11.1983
RightToes  5.38607e-012 1.2921e-014 -6.02303e-014
Spine  5.0026 -1.92284 10.5839
Spine1  6.72489 -2.20776 2.95352
HEad  5.24869 51.3843 -13.7133
LeftShoulder1  1.07141 -1.01869 -18.4522
LeftArm  17.0021 22.9724 -54.2804
LeftForeArm  26.2345 -47.0983 -10.1517
LeftHand  -0.151744 2.98952 6.79128
RightShoulder  1.24481 0.760131 24.4466
RightArm  18.7461 2.62403 44.9161
RightForeArm  39.3933 39.402 6.73
RightHand  0.349204 -8.24289 -15.0777
LeftUpLeg  -27.6192 -4.48438 3.49191
LeftLeg  88.748 -0.240606 -2.34615
LeftFoot  -5.67617 0.121983 -1.77598
LeftToes  -4.79707e-012 -5.93756e-011 -7.55542e-012
2404
root  53.8941 34.0713 71.9064 -99.7004 77.4569 -100.219
RightUpLeg  -11.3565 -2.41727 2.20247
RightLeg  47.5623 3.41447 3.65992
RightFoot  -34.5566 2.01268 10.9222
RightToes  5.38607e-012 1.2921e-014 -6.02303e-014
Spine  5.12998 -0.540945 11.1668
Spine1  5.8426 -0.330992 1.58841
HEad  7.2322 50.2908 -11.7564
LeftShoulder1  1.01868 -0.765782 -18.7143
LeftArm  18.5737 23.1939 -52.7155
LeftForeArm  26.6934 -45.5889 -9.54593
LeftHand  -0.148618 2.95683 6.55012
RightShoulder  1.37328 1.18632 24.4232
RightArm  16.8865 2.28678 47.2756
RightForeArm  40.1821 37.1195 6.05981
RightHand  0.288639 -7.62376 -15.9691
LeftUpLeg  -32.2782 -3.84847 2.77708
LeftLeg  86.6414 -0.227303 1.75044
LeftFoot  -8.71479 0.0285883 1.03857
LeftToes  -4.79707e-012 -5.93756e-011 -7.55542e-012
2405
root  55.7935 34.7166 71.7761 -117.481 77.4692 -118.376
RightUpLeg  -5.27707 -4.5903 0.712358
RightLeg  42.2977 3.50367 3.11177
RightFoot  -33.1283 2.18659 12.4972
RightToes  5.38607e-012 1.2921e-014 -6.02303e-014
Spine  4.02307 0.760278 12.1782
Spine1  5.85873 1.65429 -1.29372
HEad  8.4765 48.6319 -9.63855
LeftShoulder1  0.796554 0.0497756 -18.1107
LeftArm  20.7815 24.0941 -50.0862
LeftForeArm  28.4876 -47.0453 -9.96596
LeftHand  -0.141882 2.73911 5.73753
RightShoulder  1.59455 1.96617 24.1142
RightArm  16.2166 1.16394 50.0543
RightForeArm  38.8359 35.6207 5.74534
RightHand  0.228081 -7.07054 -16.8785
LeftUpLeg  -35.0699 -2.71153 0.97674
LeftLeg  79.2017 0.330039 3.86391
LeftFoot  -11.9363 0.084205 2.4035
LeftToes  -4.79707e-012 -5.93756e-011 -7.55542e-012
2406
root  57.741 35.6119 71.4373 -131.399 76.7489 -133.262
RightUpLeg  -0.335323 -4.73412 -0.687113
RightLeg  37.1429 3.46156 2.5408
RightFoot  -28.3256 2.22869 16.1281
RightToes  5.38607e-012 1.2921e-014 -6.02303e-014
Spine  3.01028 2.22634 13.0051
Spine1  5.40974 3.67443 -4.3303
HEad  9.58556 46.3693 -8.18709
LeftShoulder1  0.537815 1.04291 -17.3535
LeftArm  23.2362 24.8868 -47.3854
LeftForeArm  30.6188 -49.1669 -10.6618
LeftHand  -0.143289 2.54919 5.4404
RightShoulder  1.76394 2.65784 23.4309
RightArm  16.1114 -0.171448 52.8413
RightForeArm  36.9262 34.5027 5.56881
RightHand  0.196682 -6.77774 -17.6769
LeftUpLeg  -36.1472 -1.12023 -1.53052
LeftLeg  67.2557 1.98717 5.97232
LeftFoot  -14.13 0.156062 2.92373
LeftToes  -4.79707e-012 -5.93756e-011 -7.55542e-012
2407
root  59.6622 36.5005 70.9509 -142.129 75.6793 -145.535
RightUpLeg  2.92422 -6.45192 -3.35393
RightLeg  33.5511 6.12928 4.11177
RightFoot  -21.706 1.62996 19.4354
RightToes  5.38607e-012 1.2921e-014 -6.02303e-014
Spine  2.20757 3.62776 13.2835
Spine1  4.56532 5.46192 -7.50592
HEad  10.357 44.2077 -7.67
LeftShoulder1  0.316276 1.95307 -16.941
LeftArm  24.6155 25.9312 -44.6784
LeftForeArm  33.5415 -51.5303 -11.4746
LeftHand  -0.114841 2.71855 4.48552
RightShoulder  1.87638 3.16825 22.8135
RightArm  17.9091 -1.16488 55.1687
RightForeArm  34.3216 32.6978 5.26925
RightHand  0.11956 -6.25552 -17.8671
LeftUpLeg  -35.7385 1.15423 -5.05613
LeftLeg  51.9278 6.12024 8.77445
LeftFoot  -14.7938 0.17753 2.94156
LeftToes  -4.79707e-012 -5.93756e-011 -7.55542e-012
